HIERARCHY
ROOT Hips
{
	OFFSET 0.00000 0.00000 0.00000
	CHANNELS 6 Xposition Yposition Zposition Yrotation Zrotation Xrotation 
	JOINT Lumbar
	{
		OFFSET 0 0 0
		CHANNELS 3 Zrotation Xrotation Yrotation
		JOINT Neck
		{
			OFFSET 0.00 0.2701 0.00
			CHANNELS 3 Zrotation Xrotation Yrotation
			End Site
			{
				OFFSET 0.00 0.1379 0.00
			}
		}
		JOINT RightShoulder
		{
			OFFSET 0.0119 0.2289 0.1181
			CHANNELS 3 Zrotation Xrotation Yrotation
			JOINT RightElbow
			{
				OFFSET 0.00 -0.1475 0.00
				CHANNELS 2 Zrotation Yrotation
				JOINT RightWrist
				{
					OFFSET 0.00 -0.1605 0.00
					CHANNELS 2 Zrotation Xrotation
					End Site
					{
						OFFSET 0.0040 -0.1068 0.0006
					}
				}
			}
		}
		JOINT LeftShoulder
		{
			OFFSET 0.0119 0.2289 -0.1181
			CHANNELS 3 Zrotation Xrotation Yrotation
			JOINT LeftElbow
			{
				OFFSET 0.00 -0.1475 0.00
				CHANNELS 2 Zrotation Yrotation
				JOINT LeftWrist
				{
					OFFSET 0.00 -0.1605 0.00
					CHANNELS 2 Zrotation Xrotation
					End Site
					{
						OFFSET 0.0040 -0.1068 -0.0006
					}
				}
			}
		}
	}
	JOINT RightHip
	{
		OFFSET 0.0316 -0.0424 0.0458
		CHANNELS 3 Zrotation Xrotation Yrotation
		JOINT RightKnee
		{
			OFFSET 0.00 -0.2438 0.00
			CHANNELS 1 Zrotation
			JOINT RightAnkle
			{
				OFFSET 0.00 -0.2449 0.00
				CHANNELS 3 Zrotation Xrotation Yrotation
				End Site
				{
					OFFSET 0.1237 -0.0542 0.0051
				}
			}
		}
	}
	JOINT LeftHip
	{
		OFFSET 0.0316 -0.0424 -0.0458
		CHANNELS 3 Zrotation Xrotation Yrotation
		JOINT LeftKnee
		{
			OFFSET 0.00 -0.2438 0.00
			CHANNELS 1 Zrotation
			JOINT LeftAnkle
			{
				OFFSET 0.00 -0.2449 0.00
				CHANNELS 3 Zrotation Xrotation Yrotation
				End Site
				{
					OFFSET 0.1237 -0.0542 -0.0051
				}
			}
		}
	}
}
MOTION
Frames: 33
Frame Time: 0.02
0.48153 0.08791 0.13603 48.92141 -24.72748 -10.5076 48.88673 -0.67899 0.29136 -14.07194 9.02287 -2.11994 -1.98361 -10.04632 41.95446 80.24102 81.44957 -7.59793 -3.14394 -32.37116 21.53518 -5.27951 63.12826 -81.0643 -3.02163 -0.30946 29.8739 5.74344 -16.42696 -12.68436 -6.86138 -2.14345 -3.30234 21.38964 20.41322 24.51632 -0.34693 -14.91406 -32.9986 -12.96701
0.48286 0.08823 0.13715 49.06064 -24.61284 -10.4106 48.75742 -0.66208 0.325 -14.11776 8.94542 -2.11994 -1.97768 -10.08778 41.80923 80.28057 81.46099 -7.67736 -3.15454 -32.38049 21.3778 -5.11279 63.1607 -81.01652 -3.20007 -1.62396 29.49174 5.93998 -16.31129 -12.1708 -6.88742 -2.1648 -3.3124 21.31658 20.53163 24.44555 -0.35151 -15.36668 -33.06252 -12.98908
0.48407 0.08854 0.13819 49.17577 -24.4747 -10.31413 48.6082 -0.63775 0.35145 -14.17409 8.86963 -2.11994 -1.96055 -10.11139 41.63409 80.26698 81.47236 -7.75522 -3.15979 -32.47614 21.13228 -4.75714 62.93315 -80.97211 -3.40297 -3.2845 29.08444 6.13525 -16.09816 -11.63421 -6.91715 -2.19583 -3.32646 21.21577 20.6346 24.33273 -0.35484 -15.73558 -33.02609 -12.97657
0.48532 0.08885 0.13927 49.29967 -24.35505 -10.2161 48.47335 -0.6179 0.38543 -14.22465 8.79444 -2.11994 -1.94203 -10.15758 41.44721 80.27869 81.48285 -7.83426 -3.16584 -32.53432 20.93491 -4.495 62.8073 -80.93151 -3.57409 -4.69426 28.70386 6.32645 -15.93055 -11.11896 -6.94466 -2.22192 -3.33852 21.13745 20.74156 24.2337 -0.35896 -16.13599 -33.02787 -12.97717
0.48664 0.08917 0.14033 49.4301 -24.20246 -10.12282 48.31705 -0.59262 0.4033 -14.27988 8.71233 -2.11994 -1.95757 -10.13155 41.36723 80.29146 81.49786 -7.91304 -3.17953 -32.58833 20.7046 -4.20146 62.74793 -80.87166 -3.82726 -6.48551 28.25987 6.53668 -15.7546 -10.55879 -6.97441 -2.2503 -3.35134 21.017 20.86044 24.15764 -0.36276 -16.56549 -33.0608 -12.98838
0.48778 0.08946 0.14141 49.54285 -24.11235 -10.02059 48.19913 -0.57733 0.4523 -14.32748 8.6471 -2.11994 -1.89049 -10.26557 41.05742 80.28154 81.50265 -7.9894 -3.17523 -32.67019 20.52105 -3.92638 62.48972 -80.85122 -3.91945 -7.58214 27.94113 6.70751 -15.57366 -10.08617 -7.00049 -2.27637 -3.3636 20.97788 20.95134 24.02464 -0.36675 -16.91521 -33.00734 -12.97018
0.48852 0.08966 0.14256 49.60497 -24.20729 -9.88745 48.20646 -0.5895 0.58911 -14.35396 8.60833 -2.11994 -1.67194 -10.72701 40.12491 80.28512 81.48752 -8.08039 -3.12915 -32.80878 20.49429 -3.77128 61.74311 -80.94243 -3.53417 -6.51354 27.97985 6.76588 -15.40861 -9.86355 -7.01412 -2.29176 -3.37242 21.17025 20.96607 23.73043 -0.37108 -17.04843 -32.7099 -12.86916
0.48909 0.08981 0.14374 49.65185 -24.36476 -9.74646 48.25035 -0.61232 0.75727 -14.37183 8.59022 -2.11994 -1.35316 -11.37169 38.96391 80.25198 81.4619 -8.16317 -3.06404 -32.97166 20.51681 -3.63818 60.80648 -81.07274 -2.99093 -4.76018 28.14464 6.78526 -15.24163 -9.72962 -7.02415 -2.30479 -3.38066 21.44559 20.95366 23.38213 -0.37573 -17.10623 -32.33308 -12.74111
0.48971 0.08998 0.14491 49.71105 -24.48925 -9.61309 48.26828 -0.63177 0.91069 -14.39199 8.57533 -2.11994 -1.03662 -12.01133 37.90116 80.19941 81.43386 -8.23859 -3.00312 -33.12249 20.51209 -3.47897 59.95897 -81.18147 -2.53875 -3.4317 28.24772 6.82535 -15.07187 -9.55277 -7.03677 -2.32019 -3.38977 21.68275 20.95563 23.06854 -0.38032 -17.20998 -32.01333 -12.63253
0.49043 0.09017 0.14604 49.74658 -24.63213 -9.46265 48.32545 -0.64523 1.06575 -14.41958 8.50671 -2.11994 -0.91791 -12.32283 36.85021 80.31392 81.43049 -8.36896 -2.96026 -33.28118 20.52298 -3.37706 59.08997 -81.30371 -2.00813 -1.65151 28.36753 6.85344 -14.91288 -9.38458 -7.04557 -2.3306 -3.39654 21.9204 20.94881 22.71342 -0.38414 -17.2645 -31.60616 -12.4942
0.49089 0.09031 0.14726 49.82815 -24.75189 -9.34588 48.30921 -0.67319 1.2252 -14.42928 8.55562 -2.11994 -0.34421 -13.35807 35.73429 80.05179 81.38036 -8.37268 -2.87608 -33.4275 20.51646 -3.16863 58.22489 -81.41052 -1.60037 -0.62476 28.48408 6.89643 -14.7338 -9.22169 -7.06131 -2.35056 -3.40791 22.17775 20.95355 22.42914 -0.39013 -17.40106 -31.35766 -12.40964
0.49066 0.09035 0.1487 50.04022 -24.79274 -9.32397 48.08673 -0.74388 1.38678 -14.3939 8.9178 -2.11994 1.29979 -16.37309 34.3827 78.93623 81.14368 -8.11661 -2.67655 -33.53883 20.42997 -2.61624 57.41144 -81.44122 -1.59201 -2.02297 28.54973 6.99685 -14.48828 -9.03507 -7.09798 -2.3987 -3.43268 22.46518 21.0008 22.37877 -0.40034 -17.81282 -31.60998 -12.49578
0.49015 0.09035 0.15022 50.2992 -24.80836 -9.33602 47.78831 -0.82784 1.55214 -14.34061 9.39867 -2.11994 3.4303 -20.10214 32.99688 77.41105 80.87204 -7.7171 -2.43762 -33.63573 20.32782 -1.9642 56.61132 -81.46374 -1.70732 -4.17146 28.61015 7.11201 -14.22581 -8.85411 -7.14155 -2.45618 -3.46194 22.77146 21.05971 22.39429 -0.41476 -18.30346 -32.01199 -12.63169
0.48974 0.09036 0.1517 50.53724 -24.83538 -9.33281 47.52107 -0.90229 1.7174 -14.2937 9.82934 -2.11994 5.44148 -23.49134 31.69768 75.95585 80.65513 -7.32543 -2.22012 -33.73513 20.24704 -1.38908 55.80962 -81.50023 -1.75348 -5.85464 28.68006 7.21645 -13.97842 -8.68143 -7.18139 -2.50865 -3.48881 23.07059 21.11111 22.36694 -0.4262 -18.7399 -32.32421 -12.73796
0.48943 0.0904 0.15317 50.77371 -24.86438 -9.32947 47.26871 -0.99183 1.87706 -14.25288 10.2451 -2.11994 7.01847 -26.96498 30.08157 74.98547 80.27176 -7.17501 -1.98545 -33.85153 20.11015 -0.68493 54.98046 -81.47729 -1.85417 -8.02605 28.72344 7.33795 -13.69748 -8.46541 -7.22369 -2.56461 -3.51729 23.36248 21.17192 22.40368 -0.43515 -19.25543 -32.74672 -12.8833
0.48886 0.09037 0.1547 51.02408 -24.88303 -9.33351 46.96741 -1.05289 2.04871 -14.19655 10.71965 -2.11994 9.62413 -30.41331 29.13157 72.91392 80.22957 -6.4889 -1.77949 -33.93005 20.08277 -0.22076 54.2164 -81.59764 -1.86598 -9.38397 28.82032 7.42612 -13.48526 -8.3406 -7.26245 -2.61514 -3.54328 23.67804 21.21493 22.30897 -0.45909 -19.62056 -32.94945 -12.94642
0.48767 0.09015 0.1564 51.3077 -24.87413 -9.35857 46.54473 -1.03269 2.2527 -14.09138 11.32863 -2.11994 14.85813 -33.75742 29.92948 67.86375 81.10842 -4.35201 -1.64443 -33.89716 20.38711 -0.48495 53.61183 -81.92021 -1.66202 -8.17171 29.05601 7.43411 -13.44195 -8.45978 -7.29067 -2.65209 -3.56325 24.00862 21.21713 21.96183 -0.44619 -19.59976 -32.74645 -12.8863
0.48623 0.08986 0.15816 51.60272 -24.8564 -9.38827 46.07632 -0.9833 2.46776 -13.97379 11.99203 -2.11994 21.12209 -37.0235 31.41449 61.73336 82.33224 -1.68256 -1.54275 -33.82895 20.79698 -0.98602 53.07703 -82.41832 -1.35523 -6.14279 29.34705 7.40536 -13.47229 -8.67146 -7.31495 -2.68265 -3.58024 24.36979 21.19891 21.45955 -0.46133 -19.41759 -32.2797 -12.72333
0.48488 0.08961 0.15989 51.88827 -24.8457 -9.41002 45.63158 -0.94665 2.67835 -13.868 12.63009 -2.11994 26.98189 -40.23331 32.65692 56.11444 83.42416 0.73908 -1.43811 -33.78295 21.14186 -1.35176 52.52173 -82.97074 -1.05543 -4.58534 29.61875 7.38351 -13.48629 -8.84447 -7.34045 -2.71367 -3.59726 24.74742 21.18296 20.94195 -0.51596 -19.27604 -31.76983 -12.52753
0.48361 0.08933 0.16163 52.19301 -24.82116 -9.45761 45.17123 -0.9122 2.88951 -13.73315 13.27625 -2.11994 32.61097 -43.8586 33.62123 50.3676 84.43109 3.19145 -1.28189 -33.70842 21.55907 -1.83195 51.91721 -82.97844 -0.92242 -2.63698 29.8656 7.40354 -13.43054 -9.00302 -7.36857 -2.75508 -3.61986 25.00045 21.19753 20.77744 -0.35568 -19.26962 -31.92619 -12.65648
0.48213 0.0891 0.16335 52.46055 -24.82397 -9.45202 44.73449 -0.86667 3.09857 -13.65915 13.9152 -2.11994 38.93115 -46.58668 35.30667 44.66962 85.67076 5.70276 -1.23985 -33.6877 21.84969 -2.12997 51.43447 -84.13538 -0.42249 -1.29051 30.17767 7.3274 -13.5338 -9.21421 -7.39022 -2.77354 -3.63026 25.5164 21.14287 19.85422 -0.64275 -18.94951 -30.66422 -12.10015
0.48014 0.08907 0.165 52.61645 -24.90188 -9.29868 44.36647 -0.79249 3.32925 -13.7297 14.5342 -2.11994 47.13719 -46.88717 39.00098 39.0908 87.70416 8.25893 -1.51964 -33.80169 21.7754 -1.87939 51.2467 -88.65245 1.12123 -1.87768 30.65349 6.99505 -14.09274 -9.5425 -7.39496 -2.72733 -3.6062 26.78078 20.90844 16.75195 -2.21683 -17.74073 -25.25613 -9.53634
0.47795 0.0891 0.16662 52.73526 -25.00819 -9.09163 44.02577 -0.70906 3.55202 -13.86637 15.14049 -2.11994 55.95357 -46.27925 43.36115 33.65671 89.92084 10.85218 -1.91059 -33.97494 21.56848 -1.43592 51.1834 -94.27469 3.02047 -3.08135 31.19337 6.56725 -14.80286 -9.92147 -7.39328 -2.65871 -3.57021 28.30212 20.60443 12.91566 -4.22862 -16.23275 -18.48281 -6.31183
0.47585 0.0891 0.16823 52.87502 -25.10333 -8.90861 43.67776 -0.63328 3.75835 -13.99099 15.74392 -2.11994 64.34302 -46.06185 47.29701 28.33711 91.89333 13.42059 -2.24128 -34.13641 21.41511 -1.0726 51.07912 -99.24358 4.7215 -3.95238 31.706 6.18262 -15.42105 -10.28109 -7.39454 -2.60219 -3.54068 29.68726 20.32723 9.49289 -6.00228 -14.90228 -12.52814 -3.48229
0.47371 0.08911 0.16991 52.99856 -25.19093 -8.72661 43.30585 -0.54205 4.04872 -14.04156 16.38784 -2.11994 73.41779 -45.93143 51.77755 22.2024 94.5376 16.0447 -2.61444 -34.2343 21.29258 -0.74741 50.91209 -104.86681 6.58238 -5.01819 32.21349 5.79681 -16.13953 -10.62899 -7.39564 -2.53743 -3.50671 31.15921 20.06707 5.72016 -7.94477 -13.39185 -5.73222 -0.25158
0.47163 0.08912 0.17145 53.14612 -25.30096 -8.53064 42.99171 -0.48103 4.1632 -14.25926 16.94109 -2.11994 81.17446 -45.41126 55.26412 17.83415 95.84618 18.55049 -2.92484 -34.47711 21.07447 -0.29613 50.90366 -109.37439 8.19135 -5.83362 32.74517 5.39227 -16.68448 -11.01137 -7.39552 -2.48452 -3.47914 32.50631 19.75837 2.51292 -9.6363 -12.18604 -0.36182 2.30192
0.46977 0.08916 0.17268 53.37619 -25.46733 -8.30138 42.82322 -0.50715 3.7834 -14.94782 17.26872 -2.11994 85.32347 -43.98641 55.91774 18.14352 93.20517 20.75338 -3.03708 -35.1228 20.61151 0.47588 51.30894 -110.64483 9.03617 -5.82454 33.33614 4.95125 -16.70925 -11.48266 -7.39428 -2.47043 -3.47259 33.48502 19.30549 0.96975 -10.55275 -11.90625 0.68543 2.79859
0.46798 0.0892 0.17377 53.63051 -25.65503 -8.0617 42.71366 -0.56389 3.22874 -15.79744 17.50118 -2.11994 88.08504 -42.21313 55.53386 20.26204 89.24961 22.82714 -3.08188 -35.9088 20.05917 1.36543 51.8679 -110.73584 9.61197 -5.54373 33.94727 4.49663 -16.5546 -11.98533 -7.39191 -2.46897 -3.47284 34.32157 18.81146 0.03465 -11.19705 -11.94214 0.25924 2.59498
0.46617 0.08924 0.1749 53.86876 -25.83224 -7.83153 42.58183 -0.60576 2.76101 -16.5568 17.76278 -2.11994 91.35857 -40.62954 55.56847 21.66565 86.03951 24.9357 -3.15564 -36.62004 19.55562 2.18961 52.35224 -111.2866 10.29742 -5.37869 34.54376 4.05345 -16.48431 -12.46911 -7.38963 -2.46129 -3.46968 35.19753 18.35409 -1.12558 -11.94904 -11.82641 0.54128 2.7281
0.46431 0.0893 0.17614 54.12628 -26.01412 -7.57796 42.4312 -0.65122 2.26161 -17.39109 18.08368 -2.11994 95.15772 -38.87094 55.83742 22.62011 82.22202 27.14651 -3.23975 -37.38165 19.01187 3.07156 52.86168 -112.18299 11.04563 -5.2639 35.16639 3.58373 -16.4072 -12.97407 -7.38895 -2.45474 -3.46737 36.18951 17.81805 -2.52141 -12.78255 -11.73382 0.70915 2.80679
0.46258 0.08931 0.17711 54.35087 -26.19057 -7.37306 42.3342 -0.69672 1.78661 -18.10599 18.25844 -2.11994 97.52068 -37.4197 55.37963 24.93874 79.34118 29.1134 -3.28566 -38.06853 18.53378 3.8577 53.35305 -112.08371 11.59831 -4.97619 35.73761 3.16852 -16.29998 -13.44194 -7.38472 -2.44927 -3.46515 36.90189 17.43753 -3.28044 -13.37752 -11.67284 0.74579 2.82332
0.46124 0.0892 0.17741 54.4706 -26.35018 -7.29118 42.3638 -0.73364 1.42276 -18.45756 18.05421 -2.11994 96.28241 -36.78931 53.02019 30.57197 79.48892 30.43588 -3.23454 -38.53447 18.24702 4.35741 53.76201 -109.35497 11.64209 -4.23926 36.16932 2.89728 -16.15086 -13.79746 -7.37132 -2.44258 -3.46087 36.88241 17.49189 -2.35664 -13.36322 -11.61598 0.78372 2.84097
0.46005 0.08903 0.17744 54.55816 -26.50284 -7.26167 42.44655 -0.76975 1.08919 -18.682 17.70604 -2.11994 93.63816 -36.50583 49.98802 37.51251 80.60321 31.51831 -3.14804 -38.91622 18.03225 4.75426 54.14608 -105.68991 11.50261 -3.34166 36.54696 2.68359 -15.97764 -14.11484 -7.35437 -2.43687 -3.45662 36.5841 17.70506 -0.82226 -13.11848 -11.58264 0.73261 2.81648
